<svg xmlns="http://www.w3.org/2000/svg" width="15" height="17" fill="none"><path fill="#fff" fill-rule="evenodd" d="M3.197 0c.201.588.41 1.186.617 1.774.304.882.495 1.546.58 2.011v2.571h.949V3.785L6.49 0h-.968l-.644 2.495L4.205 0H3.197Zm4.564 6.422c.437 0 .77-.161 1.006-.484.181-.237.266-.617.266-1.12v-1.66c0-.503-.085-.873-.265-1.11-.239-.321-.57-.483-1.007-.483-.428 0-.76.161-.995.483-.18.238-.266.608-.266 1.111v1.66c0 .503.085.873.266 1.12.236.322.567.483.995.483Zm-.407-3.434c0-.436.133-.654.407-.654.285 0 .408.218.408.654V4.98c0 .437-.123.664-.408.664-.274 0-.407-.228-.407-.664V2.988ZM9.735 5.36c0 .341.027.568.075.711.085.238.284.351.56.351.315 0 .637-.19.978-.588v.522h.862V1.622h-.863v3.614c-.19.275-.37.408-.54.408-.114 0-.18-.075-.199-.208-.01-.02-.01-.133-.01-.333V1.622h-.863V5.36Zm3.359 6.451v.436h-.854v-.436c0-.427.143-.646.426-.646.284.001.428.219.428.646Zm1.65-3.026A1.784 1.784 0 0 0 13.225 7.4c-1.747-.19-3.512-.19-5.267-.19-1.754 0-3.52 0-5.255.19-.739.085-1.347.635-1.527 1.385C.94 9.847.93 11.005.93 12.105c0 1.091 0 2.257.247 3.32.171.75.788 1.3 1.518 1.376C4.441 17 6.205 17 7.96 17c1.756 0 3.52 0 5.266-.199.73-.076 1.337-.626 1.518-1.376.238-1.062.248-2.229.248-3.32v-.014c-.002-1.096-.003-2.249-.249-3.306Zm-10.815.958h1.015v-.892h-2.96v.892h.997v5.398h.949V9.743Zm3.576 5.398H6.66v-.512c-.341.389-.663.579-.968.579-.274 0-.474-.114-.55-.351-.048-.142-.076-.361-.076-.692v-3.709h.846v3.453c0 .2 0 .304.008.333.02.132.087.199.2.199.171 0 .351-.132.54-.398v-3.586h.845v4.684Zm3.14-.456c.066-.199.087-.511.087-.948v-1.869c0-.437-.02-.749-.086-.939-.105-.351-.343-.531-.675-.531-.313 0-.607.17-.883.512V8.851h-.842v6.29h.842v-.456c.286.351.58.522.884.522.332 0 .57-.18.674-.522Zm3.293-1.726h-1.699v.825c0 .437.143.654.438.654.209 0 .332-.113.38-.341.008-.047.018-.237.018-.579h.864v.124c0 .275 0 .465-.02.55-.02.189-.096.36-.199.512-.229.332-.579.503-1.024.503-.445 0-.778-.161-1.024-.484-.18-.228-.276-.598-.276-1.101v-1.641c0-.503.086-.863.266-1.101.247-.323.58-.484 1.016-.484.428 0 .76.161 1.005.484.172.237.258.597.258 1.101v.978h-.004Zm-4.052.844v-2.002c0-.417-.123-.635-.37-.635-.143 0-.284.066-.428.209v2.855c.144.142.286.208.429.208.245 0 .37-.208.37-.635Z" clip-rule="evenodd"/></svg>